<svg id="Layer_1" data-name="Layer 1" xmlns="http://www.w3.org/2000/svg" viewBox="0 0 162 52"><title>TRACS_logo</title><polygon points="68.18 16.84 68.19 16.83 68.18 16.83 68.18 16.84" style="fill:#762123"/><path d="M79.11,48.73A0.85,0.85,0,1,1,80,47.88,0.85,0.85,0,0,1,79.11,48.73Z" style="fill:#562023"/><path d="M112.68,48.73a0.85,0.85,0,1,1,.85-0.85A0.85,0.85,0,0,1,112.68,48.73Z" style="fill:#562023"/><path d="M51.88,45.73V46.5H50.8v3.89h-1V46.5H48.74V45.73h3.15Z" style="fill:#a28448"/><path d="M52.33,50.39V45.73h2.54v0.72H53.31V47.6h1.45v0.72H53.31v1.36h1.62v0.72h-2.6Z" style="fill:#a28448"/><path d="M55.21,50.39l1.29-4.66h1.28L59,50.39H58l-0.26-1H56.43l-0.27,1h-1Zm1.88-3.76h0l-0.45,2h0.93Z" style="fill:#a28448"/><path d="M59.46,48.06c0-1.23,0-2.41,1.61-2.41a1.25,1.25,0,0,1,1.36,1.55h-1c0-.62-0.11-0.85-0.4-0.85-0.55,0-.62.52-0.62,1.71s0.07,1.71.62,1.71,0.43-.58.45-1h1c0,1.24-.5,1.65-1.41,1.65C59.46,50.47,59.46,49.28,59.46,48.06Z" style="fill:#a28448"/><path d="M65.22,47.6V45.73h1v4.66h-1V48.31H64.1v2.08h-1V45.73h1V47.6h1.12Z" style="fill:#a28448"/><path d="M67,50.39V45.73h1v4.66H67Z" style="fill:#a28448"/><path d="M68.84,50.39V45.73h1.32L71.4,49h0V45.73h0.91v4.66H71L69.77,47h0v3.41H68.84Z" style="fill:#a28448"/><path d="M75.28,47.16c0-.43-0.07-0.81-0.58-0.81s-0.61.82-.61,1.72c0,1.46.14,1.72,0.7,1.72a1.59,1.59,0,0,0,.48-0.09v-1H74.74V48h1.5v2.36a8.9,8.9,0,0,1-1.32.16c-1.64,0-1.83-.68-1.83-2.45,0-1.18.06-2.37,1.65-2.37a1.33,1.33,0,0,1,1.49,1.51h-1Z" style="fill:#a28448"/><path d="M82.91,50.39h-1V45.73h1.8A1.06,1.06,0,0,1,84.82,47,1,1,0,0,1,84,48.09h0a0.83,0.83,0,0,1,.85.92,6.53,6.53,0,0,0,.11,1.37H84a2.12,2.12,0,0,1-.1-0.9c0-.55.05-1-0.7-1H82.91v1.93Zm0-2.65h0.43a0.58,0.58,0,0,0,.5-0.68,0.49,0.49,0,0,0-.5-0.61H82.91v1.3Z" style="fill:#a28448"/><path d="M85.54,50.39V45.73h2.54v0.72H86.51V47.6H88v0.72H86.51v1.36h1.62v0.72h-2.6Z" style="fill:#a28448"/><path d="M90,50.47A1.22,1.22,0,0,1,88.65,49h1c0,0.45,0,.82.56,0.82a0.47,0.47,0,0,0,.49-0.53c0-.84-2-0.89-2-2.28,0-.73.35-1.31,1.54-1.31a1.16,1.16,0,0,1,1.36,1.4H90.65c0-.35-0.06-0.7-0.45-0.7a0.45,0.45,0,0,0-.5.5c0,0.89,2,.81,2,2.27C91.66,50.33,90.78,50.47,90,50.47Z" style="fill:#a28448"/><path d="M92.36,50.39V45.73H94.9v0.72H93.33V47.6h1.45v0.72H93.33v1.36H95v0.72h-2.6Z" style="fill:#a28448"/><path d="M95.23,50.39l1.29-4.66h1.28l1.27,4.66H98l-0.26-1H96.46l-0.26,1h-1Zm1.88-3.76h0l-0.45,2h0.93Z" style="fill:#a28448"/><path d="M100.49,50.39h-1V45.73h1.8A1.06,1.06,0,0,1,102.41,47a1,1,0,0,1-.87,1.14h0a0.83,0.83,0,0,1,.85.92,6.43,6.43,0,0,0,.11,1.37h-1a2.14,2.14,0,0,1-.1-0.9c0-.55.05-1-0.7-1h-0.25v1.93Zm0-2.65h0.43a0.58,0.58,0,0,0,.5-0.68,0.49,0.49,0,0,0-.5-0.61h-0.43v1.3Z" style="fill:#a28448"/><path d="M103.08,48.06c0-1.23,0-2.41,1.61-2.41A1.25,1.25,0,0,1,106,47.2h-1c0-.62-0.11-0.85-0.4-0.85-0.55,0-.62.52-0.62,1.71s0.07,1.71.62,1.71,0.43-.58.45-1h1c0,1.24-.5,1.65-1.41,1.65C103.08,50.47,103.08,49.28,103.08,48.06Z" style="fill:#a28448"/><path d="M108.84,47.6V45.73h1v4.66h-1V48.31h-1.12v2.08h-1V45.73h1V47.6h1.12Z" style="fill:#a28448"/><path d="M115.47,48.06c0-1.23,0-2.41,1.61-2.41a1.25,1.25,0,0,1,1.36,1.55h-1c0-.62-0.11-0.85-0.4-0.85-0.55,0-.62.52-0.62,1.71s0.07,1.71.62,1.71,0.43-.58.45-1h1c0,1.24-.5,1.65-1.41,1.65C115.47,50.47,115.47,49.28,115.47,48.06Z" style="fill:#a28448"/><path d="M119.06,48.06c0-1.23,0-2.41,1.61-2.41s1.61,1.17,1.61,2.41,0,2.41-1.61,2.41S119.06,49.28,119.06,48.06Zm2.23,0c0-1.19-.07-1.71-0.62-1.71s-0.62.52-.62,1.71,0.07,1.71.62,1.71S121.29,49.26,121.29,48.06Z" style="fill:#a28448"/><path d="M123.06,50.39V45.73h1v3.89h1.46v0.77h-2.44Z" style="fill:#a28448"/><path d="M125.93,50.39V45.73h1v3.89h1.46v0.77h-2.43Z" style="fill:#a28448"/><path d="M128.43,50.39l1.29-4.66H131l1.26,4.66h-1l-0.26-1h-1.33l-0.26,1h-1Zm1.88-3.76h0l-0.45,2h0.93Z" style="fill:#a28448"/><path d="M132.75,50.39V45.73h1.73a1.12,1.12,0,0,1,1.36,1.21,1,1,0,0,1-.79,1h0a1,1,0,0,1,.87,1.18,1.23,1.23,0,0,1-1.44,1.23h-1.72Zm1-2.76h0.65a0.52,0.52,0,0,0,.51-0.59,0.56,0.56,0,0,0-.56-0.59h-0.6v1.19Zm0,2h0.54a0.58,0.58,0,0,0,.67-0.66,0.57,0.57,0,0,0-.65-0.67h-0.57v1.32Z" style="fill:#a28448"/><path d="M136.63,48.06c0-1.23,0-2.41,1.61-2.41s1.61,1.17,1.61,2.41,0,2.41-1.61,2.41S136.63,49.28,136.63,48.06Zm2.23,0c0-1.19-.07-1.71-0.62-1.71s-0.62.52-.62,1.71,0.07,1.71.62,1.71S138.86,49.26,138.86,48.06Z" style="fill:#a28448"/><path d="M141.58,50.39h-1V45.73h1.8A1.06,1.06,0,0,1,143.5,47a1,1,0,0,1-.87,1.14h0a0.83,0.83,0,0,1,.85.92,6.29,6.29,0,0,0,.11,1.37h-1a2.15,2.15,0,0,1-.1-0.9c0-.55.05-1-0.7-1h-0.25v1.93Zm0-2.65H142a0.58,0.58,0,0,0,.5-0.68,0.49,0.49,0,0,0-.5-0.61h-0.43v1.3Z" style="fill:#a28448"/><path d="M143.86,50.39l1.29-4.66h1.29l1.27,4.66h-1l-0.26-1h-1.33l-0.27,1h-1Zm1.88-3.76h0l-0.45,2h0.93Z" style="fill:#a28448"/><path d="M150.55,45.73V46.5h-1.09v3.89h-1V46.5H147.4V45.73h3.15Z" style="fill:#a28448"/><path d="M151,50.39V45.73h1v4.66h-1Z" style="fill:#a28448"/><path d="M152.75,48.06c0-1.23,0-2.41,1.61-2.41S156,46.83,156,48.06s0,2.41-1.61,2.41S152.75,49.28,152.75,48.06Zm2.23,0c0-1.19-.07-1.71-0.62-1.71s-0.62.52-.62,1.71,0.07,1.71.62,1.71S155,49.26,155,48.06Z" style="fill:#a28448"/><path d="M156.75,50.39V45.73h1.32L159.3,49h0V45.73h0.91v4.66h-1.29L157.67,47h0v3.41h-0.91Z" style="fill:#a28448"/><polygon points="68.16 16.81 68.17 16.79 68.16 16.79 68.16 16.81" style="fill:#762123"/><path d="M29.23,32.88l0,0.17a3.63,3.63,0,0,1-.79,2.85L28.39,36l0.11,0a7.45,7.45,0,0,1,4.71,4.12H32A6.36,6.36,0,0,0,26.5,36.8a6.09,6.09,0,0,0-5.37,3.3H19.94a7.12,7.12,0,0,1,6.4-4.25h0.2a1.73,1.73,0,0,0,1.65-1.64,2.46,2.46,0,0,0-1.38-2.79,2.16,2.16,0,0,0-1.43.29l-7.8,5.67v3.69c0,1.92,1.89,3.65,4.9,4.51l0.08,0V45.51a7.4,7.4,0,0,1,1-2.76A3.91,3.91,0,0,1,26.49,41a3.9,3.9,0,0,1,2.88,1.76,7.39,7.39,0,0,1,1,2.76V45.6l0.08,0c3-.86,4.89-2.58,4.9-4.49V37.37Z" style="fill:#b4975a"/><path d="M26.49,42a3.06,3.06,0,0,0-2.27,1.38A5.45,5.45,0,0,0,23.37,46a3.15,3.15,0,0,0,3.12,3h0a3.15,3.15,0,0,0,3.13-3,5.48,5.48,0,0,0-.85-2.64A3.07,3.07,0,0,0,26.49,42Z" style="fill:#b4975a"/><path d="M44.3,31.82a3.9,3.9,0,0,1-.79-3.29,3.92,3.92,0,0,1,2.57-2.2,6.24,6.24,0,0,1,1.78-.22A7.54,7.54,0,0,1,49,26.2h0.08V26.13c0.11-3.13-.95-5.44-2.76-6l-3.52-1.15-6.18,4.48,0.17,0a3.64,3.64,0,0,1,2.46,1.64l0.07,0.09,0.06-.1a7.45,7.45,0,0,1,5.38-3.21L44.42,23a6.35,6.35,0,0,0-4.9,4.27A6.1,6.1,0,0,0,41,33.37L40.64,34.5a7.16,7.16,0,0,1-2-7.55,1.49,1.49,0,0,0-.19-1.41,2.8,2.8,0,0,0-2.22-1,2,2,0,0,0-1.7.78,2.13,2.13,0,0,0-.17,1.45l3,9.17L40.83,37a3,3,0,0,0,.91.14c1.62,0,3.45-1.27,4.89-3.41l0-.07-0.07,0A7.37,7.37,0,0,1,44.3,31.82Z" style="fill:#818646"/><path d="M49.24,27.11a4.59,4.59,0,0,0-1.39-.18,4.92,4.92,0,0,0-1.39.17,3.13,3.13,0,0,0-2,1.74,3.06,3.06,0,0,0,.61,2.59,5.49,5.49,0,0,0,2.25,1.63,2.81,2.81,0,0,0,.84.13h0a3.2,3.2,0,0,0,3-2.18A3.15,3.15,0,0,0,49.24,27.11Z" style="fill:#818646"/><path d="M42.95,7.24L42.9,7.17l-0.06.06a7.34,7.34,0,0,1-2.46,1.62,5.11,5.11,0,0,1-1.56.25A3,3,0,0,1,37,8.59a3.9,3.9,0,0,1-1.29-3.12,7.32,7.32,0,0,1,.78-2.84l0-.08-0.08,0a9.79,9.79,0,0,0-3.27-.64,3.92,3.92,0,0,0-3.33,1.39l-2.18,3L30,13.54l0.08-.15a3.63,3.63,0,0,1,2.32-1.84l0.11,0-0.08-.09a7.46,7.46,0,0,1-1.39-6.1L32,6a6.46,6.46,0,0,0,1.54,5.08,6,6,0,0,0,4.46,2,6.45,6.45,0,0,0,2.78-.65l1,0.7a7.26,7.26,0,0,1-3.6,1A7,7,0,0,1,34,12.75a1.5,1.5,0,0,0-.93-0.33,2.42,2.42,0,0,0-2,1.44,2.17,2.17,0,0,0,0,2.3,2.14,2.14,0,0,0,1.33.61h9.64l2.17-3C45.38,12.22,44.88,9.71,42.95,7.24Z" style="fill:#80a1b6"/><path d="M37.58,7.8A2.4,2.4,0,0,0,39,8.21,4,4,0,0,0,40.23,8a5.47,5.47,0,0,0,2.25-1.64,3.14,3.14,0,0,0-.78-4.25,3.34,3.34,0,0,0-1.89-.59,2.94,2.94,0,0,0-2.4,1.17,5.49,5.49,0,0,0-.86,2.64A3.06,3.06,0,0,0,37.58,7.8Z" style="fill:#80a1b6"/><path d="M16.3,29.1a4,4,0,0,1-1.36-.26l-0.11,0v0.12a7.46,7.46,0,0,1-2.46,5.75L12,33.53a6.35,6.35,0,0,0,1.45-6.34,6.11,6.11,0,0,0-4.78-4L8.32,22A7.16,7.16,0,0,1,14.38,27a1.6,1.6,0,0,0,1.67,1.14,2.57,2.57,0,0,0,2.65-2.21A2.13,2.13,0,0,0,18,24.61l-7.8-5.67L6.67,20.08c-1.82.6-2.88,2.92-2.77,6.06v0.09H4a7.46,7.46,0,0,1,1.17-.09,6.25,6.25,0,0,1,1.78.22,3.91,3.91,0,0,1,2.57,2.2,3.92,3.92,0,0,1-.79,3.29,7.4,7.4,0,0,1-2.3,1.84l-0.08,0,0,0.07c1.44,2.13,3.26,3.41,4.88,3.41h0A3,3,0,0,0,12.17,37l3.53-1.14,2.36-7.27-0.16.07A3.69,3.69,0,0,1,16.3,29.1Z" style="fill:#562023"/><path d="M8,31.44a3.06,3.06,0,0,0,.61-2.59,3.07,3.07,0,0,0-2-1.73,4.87,4.87,0,0,0-1.4-.18,4.54,4.54,0,0,0-1.38.18A3.15,3.15,0,0,0,1.9,31a3.21,3.21,0,0,0,3,2.18h0a2.81,2.81,0,0,0,.84-0.13A5.47,5.47,0,0,0,8,31.44Z" style="fill:#562023"/><path d="M23.14,3.28a4,4,0,0,0-3.35-1.4,9.77,9.77,0,0,0-3.27.63l-0.08,0,0,0.08a7.35,7.35,0,0,1,.78,2.84A3.91,3.91,0,0,1,16,8.59a3,3,0,0,1-1.81.52,5.19,5.19,0,0,1-1.56-.25,7.39,7.39,0,0,1-2.46-1.62l-0.06-.06L10,7.24c-1.93,2.47-2.43,5-1.32,6.51l2.18,3h7.64l-0.12-.13a3.65,3.65,0,0,1-1-2.77V13.74l-0.11,0a6.32,6.32,0,0,1-2.43.44,7.14,7.14,0,0,1-3.81-1l1-.71a6.84,6.84,0,0,0,2.81.62,6.09,6.09,0,0,0,4.6-2.06,6.16,6.16,0,0,0,1.42-4.92l1-.7A7.16,7.16,0,0,1,19,12.74a1.6,1.6,0,0,0-.58,1.91c0.35,1.12,1.62,2.3,2.93,1.86a2.14,2.14,0,0,0,1-1.07l3-9.17Z" style="fill:#00274d"/><path d="M12.74,8a4,4,0,0,0,1.21.2h0A2.4,2.4,0,0,0,15.4,7.8a3.07,3.07,0,0,0,1-2.46,5.47,5.47,0,0,0-.86-2.64,2.94,2.94,0,0,0-2.4-1.17,3.33,3.33,0,0,0-1.89.59,3.15,3.15,0,0,0-.77,4.25A5.5,5.5,0,0,0,12.74,8Z" style="fill:#00274d"/><path d="M114.9,39.79V20.15a12.17,12.17,0,0,0-1.5-6.38,7.71,7.71,0,0,0-4.21-3.33,13.18,13.18,0,0,0-4.32-.65,11.38,11.38,0,0,0-6,1.45,7.83,7.83,0,0,0-3.32,4.29,14.3,14.3,0,0,0-.68,4.61V39.79h7.55V33.46h5v6.33h7.55ZM102.38,26.93V20.66a6.7,6.7,0,0,1,.36-2.37,2.68,2.68,0,0,1,1.09-1.4,2,2,0,0,1,2.06,0,2.37,2.37,0,0,1,.81.82,5.65,5.65,0,0,1,.64,2.95v6.27h-5Z" style="fill:#562023"/><polygon points="75.49 9.75 56.45 9.75 51.34 16.81 59.07 16.81 59.07 39.78 66.88 39.78 66.88 16.81 70.36 16.81 75.49 9.75" style="fill:#562023"/><path d="M137.26,33.67a14.64,14.64,0,0,0,.56-4.24V27.91H130.3v1a6.69,6.69,0,0,1-.36,2.37,2.67,2.67,0,0,1-1.09,1.39,2,2,0,0,1-2.06,0,2.36,2.36,0,0,1-.81-0.82,5.64,5.64,0,0,1-.64-2.94V20.66a6.65,6.65,0,0,1,.36-2.37,2.67,2.67,0,0,1,1.09-1.4,2,2,0,0,1,2.06,0,2.37,2.37,0,0,1,.81.82,5.64,5.64,0,0,1,.64,2.94v1.13h7.53V20.15a12.63,12.63,0,0,0-1.24-5.91,7.55,7.55,0,0,0-3.49-3.37,10.83,10.83,0,0,0-3.57-1,14.7,14.7,0,0,0-3.41,0,9.65,9.65,0,0,0-5,1.82,8,8,0,0,0-2.76,4.18,14.63,14.63,0,0,0-.57,4.24v9.27a12.64,12.64,0,0,0,1.24,5.92,7.53,7.53,0,0,0,3.49,3.37,10.84,10.84,0,0,0,3.57,1,14.52,14.52,0,0,0,3.41,0,9.66,9.66,0,0,0,5-1.82A8.06,8.06,0,0,0,137.26,33.67Z" style="fill:#562023"/><path d="M160.24,30.37a10.61,10.61,0,0,0-.89-4.53,8,8,0,0,0-3.29-3.53,14.3,14.3,0,0,0-4.14-1.57h0a12.82,12.82,0,0,1-2.46-.77,4.07,4.07,0,0,1-1.36-.92,2.18,2.18,0,0,1-.44-0.71,2.27,2.27,0,0,1-.14-0.82c0-.11,0-0.2,0-0.25a2.33,2.33,0,0,1,.71-1.72,3,3,0,0,1,2-.76h0.15a2.93,2.93,0,0,1,1.14.22,2.43,2.43,0,0,1,.87.62,2.84,2.84,0,0,1,.67,1.88l1.13,0.12a26.48,26.48,0,0,1,3.17.49,12.63,12.63,0,0,1,2.49.81,13.55,13.55,0,0,0-.51-3.93,6.71,6.71,0,0,0-1.85-3.05,7,7,0,0,0-2.29-1.37,13.82,13.82,0,0,0-4.9-.76,13.58,13.58,0,0,0-4.48.66,7.59,7.59,0,0,0-2.75,1.61,7.45,7.45,0,0,0-2.18,4.21,11.34,11.34,0,0,0-.17,2.07V18.5a7.17,7.17,0,0,0,.69,3.16A7.82,7.82,0,0,0,143.2,24a18.43,18.43,0,0,0,5.14,3.1c1.16,0.52,2.24.95,3.06,1.4a3.94,3.94,0,0,1,1.18.89,2.91,2.91,0,0,1,.14,3.72,3.62,3.62,0,0,1-1.28,1.1,2.37,2.37,0,0,1-1,.26,3.31,3.31,0,0,1-1.6-.42,3.11,3.11,0,0,1-1.35-1.49,4.11,4.11,0,0,1-.31-1.64c0-.16,0-0.32,0-0.49-1.18-.33-4-1.13-6.83-2.22,0,0.38,0,.77,0,1.15s0,0.74,0,1.08a10.59,10.59,0,0,0,1.52,5.36A8,8,0,0,0,146,39.07a12.52,12.52,0,0,0,4.34.7c3.36,0,5.73-1,7.32-2.47a8.61,8.61,0,0,0,2.57-5.88Q160.24,30.89,160.24,30.37Z" style="fill:#562023"/><path d="M83.12,29.16a3.16,3.16,0,0,1,1,1.31,2.63,2.63,0,0,1,.19.95c0,0.69,0,6.35,0,8.35h7.62c0-.8,0-2,0-3.39s0-2.95-.07-4.34a25.83,25.83,0,0,0-.29-3.37h0a5.81,5.81,0,0,0-.43-1.4,3.38,3.38,0,0,0-.66-1,4.55,4.55,0,0,0-2.3-1.11h0l-2.4-.55,2.15-.82,0.16-.06h0a6.18,6.18,0,0,0,2-1,4.88,4.88,0,0,0,1.24-1.47,8.86,8.86,0,0,0,.91-4.34,8.53,8.53,0,0,0-1.1-4.72,5.07,5.07,0,0,0-3-2.1,11.84,11.84,0,0,0-3.17-.37H79.41L71.94,20.06v19.7h7.61V28.54h1.76A2.86,2.86,0,0,1,83.12,29.16Zm-3.56-6.37V15.42h1.54a6,6,0,0,1,1.54.17,2.77,2.77,0,0,1,1.32.74,2.67,2.67,0,0,1,.57.92,4.68,4.68,0,0,1,.26,1.66,4.37,4.37,0,0,1-.61,2.42,3.09,3.09,0,0,1-1.71,1.26,4.87,4.87,0,0,1-1.43.19H79.55Z" style="fill:#562023"/></svg>